<svg width="20" height="33" viewBox="0 0 20 33" fill="none" xmlns="http://www.w3.org/2000/svg">
<path d="M0.609375 24.4831L5.62244 27.1024L5.42857 32.7544L0.609375 29.9847L0.609375 24.4831Z" fill="white"/>
<rect width="5.55843" height="5.75289" transform="matrix(0.867005 0.498299 -2.21307e-08 1 0.609375 18.8278)" fill="white"/>
<rect width="5.53304" height="5.53304" transform="matrix(0.867006 0.498299 -0.867006 0.498299 5.40674 16.2118)" fill="white"/>
<rect width="5.53304" height="5.53304" transform="matrix(0.867005 0.498299 -0.867005 0.498299 4.85254 0)" fill="white"/>
<rect width="5.53304" height="5.53304" transform="matrix(0.867005 0.498299 -0.867005 0.498299 9.56104 2.70197)" fill="white"/>
<rect width="5.53304" height="5.53304" transform="matrix(0.867005 0.498299 -0.867005 0.498299 14.3247 5.45905)" fill="white"/>
<rect width="5.53304" height="5.53304" transform="matrix(0.867005 0.498299 -0.867005 0.498299 10.1704 13.4547)" fill="white"/>
<rect width="5.64112" height="4.64517" transform="matrix(0.867005 0.498299 -0.867005 0.498299 14.2197 11.14)" fill="white"/>
<rect width="5.40526" height="5.57789" transform="matrix(0.867005 -0.498299 2.21307e-08 1 5.42871 27.1765)" fill="white"/>
<rect width="5.40526" height="5.59417" transform="matrix(0.867005 -0.498299 2.21307e-08 1 5.42871 21.5824)" fill="white"/>
<rect width="5.53304" height="5.51421" transform="matrix(0.867005 -0.498299 2.21308e-08 1 9.9707 18.9689)" fill="white"/>
<rect width="5.36676" height="5.54193" transform="matrix(0.867005 -0.498299 2.21307e-08 1 14.4575 16.3495)" fill="white"/>
<rect width="5.53304" height="5.51421" transform="matrix(0.867005 -0.498299 2.21308e-08 1 14.2915 10.9733)" fill="white"/>
<rect width="5.53304" height="5.51421" transform="matrix(0.867005 0.498299 -2.21308e-08 1 9.52783 8.21619)" fill="white"/>
<rect width="5.53304" height="5.51421" transform="matrix(0.867005 0.498299 -2.21308e-08 1 4.76367 5.45905)" fill="white"/>
<rect width="5.53304" height="5.51421" transform="matrix(0.867005 0.498299 -2.21307e-08 1 0 2.70197)" fill="white"/>
</svg>
